<?xml version="1.0" ?><!DOCTYPE svg  PUBLIC '-//W3C//DTD SVG 1.1//EN'  'http://www.w3.org/Graphics/SVG/1.1/DTD/svg11.dtd'><svg enable-background="new 0 0 50 50" height="50px" id="Layer_1" version="1.1" viewBox="0 0 50 50" width="50px" xml:space="preserve" xmlns="http://www.w3.org/2000/svg" xmlns:xlink="http://www.w3.org/1999/xlink"><g><path d="M38.244,1.38H11.758c-6.123,0-11.086,4.77-11.086,10.655v25.93c0,5.883,4.963,10.655,11.086,10.655h26.486   c6.123,0,11.084-4.772,11.084-10.655v-25.93C49.328,6.149,44.367,1.38,38.244,1.38z M25,42.205c-7.345,0-13.299-5.646-13.299-12.61   c0-0.326,0.048-0.641,0.073-0.96H11.7V7.795h4.901c0,0-0.234,21.474-0.234,21.8c0,4.521,3.865,8.186,8.633,8.186   c4.768,0,8.633-3.665,8.633-8.186c0-4.521-3.865-8.187-8.633-8.187c-0.158,0-0.311,0.014-0.467,0.022v-4.426   C24.689,17,24.841,16.982,25,16.982c7.346,0,13.299,5.646,13.299,12.612C38.299,36.56,32.346,42.205,25,42.205z" fill="#404041"/></g></svg>